<?xml version="1.0" standalone="no"?><!DOCTYPE svg PUBLIC "-//W3C//DTD SVG 1.1//EN" "http://www.w3.org/Graphics/SVG/1.1/DTD/svg11.dtd"><svg class="icon" width="128px" height="128.00px" viewBox="0 0 1024 1024" version="1.1" xmlns="http://www.w3.org/2000/svg"><path fill="#1fa2ff" d="M604.8 96H576a64 64 0 0 0-128 0h-28.8A67.2 67.2 0 0 0 352 163.2V224a32 32 0 0 0 32 32h256a32 32 0 0 0 32-32V163.2A67.2 67.2 0 0 0 604.8 96z"  /><path fill="#1fa2ff" d="M828.8 160H736v96a64 64 0 0 1-64 64H348a64 64 0 0 1-64-64V160H195.2A67.2 67.2 0 0 0 128 227.2v665.6A67.2 67.2 0 0 0 195.2 960h633.6a67.2 67.2 0 0 0 67.2-67.2V227.2A67.2 67.2 0 0 0 828.8 160zM477.824 768L320 610.176l50.4-50.4 107.424 107.424 210.56-210.56 50.4 50.4z"  /></svg>